if (_typeface_js && _typeface_js.loadFace) _typeface_js.loadFace({"glyphs":{"S":{"x_min":59.046875,"x_max":544.046875,"ha":603,"o":"m 544 227 b 204 670 544 510 204 487 b 306 770 204 731 247 770 b 440 703 355 770 408 740 l 522 785 b 299 895 474 853 380 895 b 59 663 165 895 59 805 b 398 229 59 397 398 374 b 283 109 398 159 352 109 b 144 173 238 109 178 145 l 76 63 b 281 -20 128 16 211 -20 b 544 227 424 -20 544 76 "},"/":{"x_min":5.4375,"x_max":479.109375,"ha":494,"o":"m 479 1041 l 352 1041 l 5 -195 l 132 -195 l 479 1041 "},"K":{"x_min":100.71875,"x_max":651.96875,"ha":674,"o":"m 651 0 l 651 61 l 332 427 l 645 874 l 485 874 l 249 541 l 249 874 l 100 874 l 100 0 l 249 0 l 249 309 l 515 0 l 651 0 "},"7":{"x_min":78.9375,"x_max":530.828125,"ha":625,"o":"m 530 603 l 530 680 l 78 680 l 78 550 l 396 550 b 121 -181 387 308 255 14 l 242 -244 b 530 603 396 -35 530 341 "},"d":{"x_min":60,"x_max":639.828125,"ha":711,"o":"m 639 82 b 594 142 597 82 594 100 l 594 964 l 452 964 l 452 678 b 326 700 452 678 382 700 b 60 309 117 700 60 502 b 306 -21 60 130 155 -21 b 465 82 392 -21 443 39 b 517 -7 473 46 487 13 b 596 -21 541 -24 596 -21 l 639 82 m 452 318 b 315 105 452 248 408 98 b 207 324 220 112 207 259 b 332 573 207 435 223 573 b 452 550 381 573 452 550 l 452 318 "},",":{"x_min":17.6875,"x_max":296.71875,"ha":358,"o":"m 296 54 b 187 134 274 88 228 134 b 106 101 160 134 126 118 b 108 66 108 90 108 79 b 17 -155 108 -9 59 -93 l 103 -215 b 296 54 178 -137 247 -43 "},"Y":{"x_min":17.6875,"x_max":623.390625,"ha":654,"o":"m 623 874 l 470 874 l 319 479 l 176 874 l 17 874 l 246 327 l 246 0 l 394 0 l 394 326 l 623 874 "},"E":{"x_min":98,"x_max":574.390625,"ha":631,"o":"m 574 0 l 574 137 l 246 137 l 246 387 l 487 387 l 487 523 l 246 523 l 246 740 l 560 740 l 560 874 l 98 874 l 98 0 l 574 0 "},"y":{"x_min":14.96875,"x_max":602.96875,"ha":631,"o":"m 602 680 l 457 680 b 321 158 423 504 378 327 b 285 298 314 205 299 254 b 166 680 285 298 205 552 l 14 680 l 246 0 b 171 -106 220 -47 201 -80 b 78 -155 149 -126 121 -141 l 110 -265 b 251 -206 110 -265 201 -242 b 602 680 416 -85 558 473 "},"\"":{"x_min":72.140625,"x_max":393.359375,"ha":481,"o":"m 393 892 l 370 998 l 270 998 l 250 892 l 280 660 l 362 660 l 393 892 m 215 892 l 193 998 l 92 998 l 72 892 l 102 660 l 183 660 l 215 892 "},"‹":{"x_min":21.78125,"x_max":389.28125,"ha":417,"o":"m 389 148 l 190 349 l 386 545 l 289 624 l 21 347 l 292 69 l 389 148 "},"„":{"x_min":17.6875,"x_max":524.03125,"ha":603,"o":"m 296 58 b 187 138 274 91 228 138 b 106 105 160 138 126 122 b 108 70 108 94 108 83 b 17 -151 108 -5 59 -90 l 103 -211 b 296 58 178 -133 247 -38 m 524 58 b 415 138 502 91 457 138 b 334 105 389 138 355 122 b 337 70 336 94 337 83 b 246 -151 337 -5 288 -90 l 330 -211 b 524 58 405 -133 475 -38 "},"g":{"x_min":45.71875,"x_max":591.5,"ha":632,"o":"m 591 555 l 591 680 l 421 680 b 309 700 387 695 347 700 b 68 456 165 700 68 605 b 183 253 68 378 104 287 b 87 142 135 235 87 196 b 168 44 87 95 127 49 b 45 -98 117 21 45 -29 b 282 -275 45 -230 172 -275 b 586 -22 426 -275 586 -186 b 414 131 586 77 505 131 l 371 131 b 232 157 339 131 232 120 b 313 220 232 203 292 214 b 360 228 330 224 345 226 b 532 452 470 256 532 338 b 513 555 532 487 523 523 l 591 555 m 395 462 b 304 335 395 402 375 335 b 209 471 224 335 209 402 b 301 595 209 532 230 595 b 395 462 373 595 395 523 m 448 -33 b 287 -169 448 -119 366 -169 b 185 -79 237 -169 185 -150 b 266 19 185 -22 266 19 l 345 19 b 448 -33 381 19 448 19 "},"–":{"x_min":0,"x_max":487.28125,"ha":497,"o":"m 487 291 l 487 416 l 0 416 l 0 291 l 487 291 "},"ƒ":{"x_min":2.71875,"x_max":511.78125,"ha":533,"o":"m 511 802 l 511 919 b 382 962 473 945 428 962 b 191 783 274 962 204 891 b 182 680 189 748 185 715 l 110 680 l 87 579 l 166 560 b 2 -68 140 374 102 90 l 78 -147 b 306 558 227 37 273 327 l 447 558 l 468 680 l 318 680 b 393 835 325 727 328 835 b 511 802 430 835 481 824 "},"e":{"x_min":58.53125,"x_max":593.4375,"ha":654,"o":"m 593 348 b 592 440 593 379 592 409 b 349 701 588 569 481 701 b 58 356 166 701 58 529 b 325 -20 58 184 123 -20 b 559 83 401 -20 500 33 l 511 177 b 333 102 465 141 390 102 b 202 323 235 102 202 245 b 204 348 202 331 202 340 l 593 348 m 450 469 l 223 469 b 340 592 238 531 270 592 b 450 469 409 592 445 533 "},"J":{"x_min":-4.078125,"x_max":240.921875,"ha":340,"o":"m 240 -19 l 240 874 l 95 874 l 95 -12 b -4 -122 95 -70 42 -101 l 29 -227 b 240 -19 127 -198 240 -138 "},"|":{"x_min":89.828125,"x_max":212.328125,"ha":308,"o":"m 212 -19 l 212 1044 l 89 1044 l 89 -19 l 212 -19 "},"^":{"x_min":74.859375,"x_max":771.75,"ha":867,"o":"m 771 436 l 473 991 l 372 991 l 74 436 l 217 436 l 423 815 l 628 436 l 771 436 "},"q":{"x_min":59,"x_max":598,"ha":715,"o":"m 598 -242 l 598 648 b 333 701 598 648 452 701 b 59 315 140 701 59 483 b 314 -20 59 154 128 -20 b 453 48 365 -20 425 8 l 453 -242 l 598 -242 m 453 332 b 377 123 453 258 440 171 b 320 105 361 111 340 105 b 204 333 220 105 204 261 b 331 575 204 418 229 558 b 453 561 381 583 453 561 l 453 332 "},"b":{"x_min":104.8125,"x_max":630.203125,"ha":699,"o":"m 630 380 b 382 701 630 533 552 701 b 247 630 337 701 277 665 l 247 965 l 104 965 l 104 69 b 344 -20 172 17 257 -20 b 630 380 562 -20 630 196 m 484 367 b 353 99 484 283 464 99 b 247 136 319 99 276 117 l 247 501 b 370 571 274 528 332 571 b 484 367 468 571 484 442 "},"D":{"x_min":99.359375,"x_max":676.46875,"ha":760,"o":"m 676 436 b 356 874 676 649 602 874 l 99 874 l 99 0 l 344 0 b 676 436 586 0 676 219 m 526 433 b 344 130 526 308 502 130 l 246 130 l 246 744 l 351 744 b 526 433 509 744 526 554 "},"z":{"x_min":46.140625,"x_max":541.578125,"ha":592,"o":"m 541 0 l 541 131 l 217 131 b 513 562 288 255 420 442 l 513 680 l 72 680 l 72 549 l 333 549 b 46 115 243 436 135 272 l 46 0 l 541 0 "},"w":{"x_min":8.171875,"x_max":896.96875,"ha":931,"o":"m 896 680 l 747 680 b 642 218 730 547 688 366 l 525 680 l 389 680 l 281 218 l 159 680 l 8 680 l 212 0 l 353 0 l 423 249 b 460 437 442 316 460 437 b 495 249 460 437 477 317 l 563 0 l 699 0 b 896 680 784 191 865 441 "},"$":{"x_min":59.046875,"x_max":544.046875,"ha":603,"o":"m 275 766 l 275 549 b 204 670 235 576 204 620 b 275 766 204 716 231 755 m 336 120 l 336 329 b 398 229 367 306 398 270 b 336 120 398 183 378 140 m 544 227 b 417 455 544 347 493 404 b 336 512 417 455 364 492 l 336 767 b 440 703 372 758 414 733 l 522 785 b 336 892 481 842 402 884 l 336 970 l 275 970 l 275 894 b 59 663 150 884 59 794 b 184 433 59 569 107 484 l 275 372 l 275 109 b 144 173 232 113 178 145 l 76 63 b 275 -20 126 18 207 -18 l 275 -101 l 336 -101 l 336 -15 b 544 227 458 5 544 99 "},"™":{"x_min":97.046875,"x_max":974.921875,"ha":1114,"o":"m 429 866 l 429 953 l 97 953 l 97 866 l 216 866 l 216 402 l 308 402 l 308 866 l 429 866 m 974 404 l 974 955 l 864 955 l 736 581 b 724 533 728 556 724 533 b 712 581 724 533 721 555 l 584 955 l 474 955 l 474 404 l 568 404 l 568 708 l 561 772 l 686 404 l 763 404 l 887 772 l 882 708 l 882 404 l 974 404 "},"\\":{"x_min":-2.71875,"x_max":472.3125,"ha":465,"o":"m 472 -195 l 125 1041 l -2 1041 l 344 -195 l 472 -195 "},"’":{"x_min":42.1875,"x_max":319.859375,"ha":375,"o":"m 319 815 b 210 895 298 848 253 895 b 129 860 185 895 151 877 b 133 827 132 849 133 838 b 42 604 133 749 84 666 l 126 544 b 319 815 201 623 270 717 "},"~":{"x_min":189.1875,"x_max":718.671875,"ha":925,"o":"m 718 384 l 718 532 b 596 443 718 532 677 443 b 317 532 507 443 424 532 b 189 451 235 532 189 451 l 189 311 b 315 400 189 311 232 400 b 596 309 397 400 480 309 b 718 384 675 309 718 384 "},"-":{"x_min":57.171875,"x_max":349.8125,"ha":419,"o":"m 349 291 l 349 416 l 57 416 l 57 291 l 349 291 "},"Q":{"x_min":68.0625,"x_max":680.5625,"ha":761,"o":"m 680 -43 b 617 -52 680 -43 630 -52 b 468 -2 552 -52 524 -36 b 677 437 617 58 677 263 b 372 895 677 642 593 895 b 68 437 155 895 68 642 b 330 -18 68 245 140 12 b 605 -197 406 -93 487 -197 b 654 -191 622 -197 654 -191 l 680 -43 m 529 437 b 372 112 529 301 496 112 b 216 437 249 112 216 301 b 372 762 216 573 249 762 b 529 437 496 762 529 573 "},"M":{"x_min":107.671875,"x_max":901.96875,"ha":1031,"o":"m 901 0 l 901 874 l 727 874 l 523 281 b 504 204 510 241 504 204 b 485 281 504 204 499 240 l 281 874 l 107 874 l 107 0 l 256 0 l 256 481 l 245 583 l 443 0 l 566 0 l 764 583 l 753 481 l 753 0 l 901 0 "},"C":{"x_min":70.78125,"x_max":641.078125,"ha":690,"o":"m 641 59 l 573 162 b 409 109 528 129 462 109 b 219 431 251 109 219 308 b 406 766 219 551 280 766 b 571 728 457 766 526 756 l 628 833 b 406 895 571 876 476 895 b 70 437 175 895 70 640 b 404 -20 70 222 155 -20 b 641 59 483 -20 581 8 "},"[":{"x_min":20.421875,"x_max":266.78125,"ha":344,"o":"m 266 -216 l 266 -94 l 145 -94 l 145 892 l 266 892 l 266 1015 l 20 1015 l 20 -216 l 266 -216 "},"L":{"x_min":96.640625,"x_max":507.6875,"ha":531,"o":"m 507 0 l 507 133 l 239 133 l 239 874 l 96 874 l 96 0 l 507 0 "},"!":{"x_min":95.28125,"x_max":294,"ha":367,"o":"m 294 83 b 200 173 294 137 253 173 b 95 70 145 173 95 127 b 189 -20 95 15 136 -20 b 294 83 243 -20 294 26 m 285 972 l 138 952 b 119 710 119 883 119 783 b 137 258 119 549 129 417 l 259 258 l 259 690 b 285 972 259 784 269 878 "}," ":{"x_min":0,"x_max":0,"ha":417},"{":{"x_min":40.53125,"x_max":413.46875,"ha":463,"o":"m 413 -108 l 316 -108 b 270 -13 274 -108 270 -88 l 270 227 b 178 397 270 315 217 373 b 270 569 213 413 270 481 l 270 810 b 310 906 270 885 273 906 l 413 906 l 390 1023 l 295 1023 b 146 828 225 1023 146 996 l 146 587 b 40 447 146 502 96 447 l 40 351 b 146 209 96 351 146 294 l 146 -31 b 297 -224 146 -201 229 -224 l 344 -224 l 390 -224 l 413 -108 "},"X":{"x_min":9.53125,"x_max":661.5,"ha":683,"o":"m 661 0 l 411 454 l 630 874 l 472 874 l 328 587 l 181 874 l 16 874 l 247 447 l 9 0 l 174 0 l 328 311 l 490 0 l 661 0 "},"P":{"x_min":88.46875,"x_max":622.03125,"ha":679,"o":"m 622 597 b 287 875 622 807 472 875 l 88 875 l 88 0 l 236 0 l 236 318 b 325 296 261 307 299 296 b 622 597 496 296 622 420 m 473 598 b 315 427 473 508 408 427 b 236 447 294 427 258 439 l 236 744 l 287 744 b 473 598 377 744 473 705 "},"%":{"x_min":60.171875,"x_max":885.796875,"ha":971,"o":"m 885 174 b 694 370 885 283 800 370 b 502 174 587 370 502 283 b 694 -21 502 66 587 -21 b 885 174 800 -21 885 66 m 768 174 b 693 98 768 133 734 98 b 619 174 653 98 619 133 b 693 251 619 216 653 251 b 768 174 734 251 768 216 m 748 867 l 646 893 b 432 849 583 868 499 849 b 367 857 411 849 389 850 b 343 871 359 860 349 867 b 251 895 314 883 283 895 b 60 699 145 895 60 807 b 252 503 60 591 145 503 b 443 699 358 503 443 591 b 437 749 443 716 441 732 b 579 791 488 749 538 757 l 188 0 l 321 0 l 748 867 m 326 699 b 252 623 326 657 292 623 b 177 699 211 623 177 657 b 252 775 177 741 211 775 b 326 699 292 775 326 741 "},"#":{"x_min":65.328125,"x_max":686,"ha":772,"o":"m 686 700 l 577 700 l 604 935 l 481 935 l 454 700 l 352 700 l 381 962 l 258 962 l 230 700 l 138 700 l 121 567 l 213 567 l 196 414 l 84 414 l 65 280 l 178 280 l 142 36 l 266 36 l 300 280 l 402 280 l 367 1 l 491 1 l 525 280 l 620 280 l 632 414 l 543 414 l 562 567 l 675 567 l 686 700 m 439 567 l 420 414 l 318 414 l 337 567 l 439 567 "},"_":{"x_min":0,"x_max":612.5,"ha":625,"o":"m 612 -208 l 612 -83 l 0 -83 l 0 -208 l 612 -208 "},"+":{"x_min":51.71875,"x_max":589.359375,"ha":654,"o":"m 589 284 l 589 409 l 379 409 l 379 637 l 259 637 l 259 409 l 51 409 l 51 284 l 259 284 l 259 56 l 379 56 l 379 284 l 589 284 "},"‚":{"x_min":17.6875,"x_max":296.71875,"ha":358,"o":"m 296 54 b 187 134 274 88 228 134 b 106 101 160 134 126 118 b 108 66 108 90 108 79 b 17 -155 108 -9 59 -93 l 103 -215 b 296 54 178 -137 247 -43 "},")":{"x_min":27.21875,"x_max":409.6875,"ha":471,"o":"m 409 459 b 44 1081 409 720 258 946 l 28 956 b 288 456 191 849 288 654 b 27 -77 288 233 197 61 l 42 -212 b 409 459 274 -34 409 154 "},"'":{"x_min":66.6875,"x_max":210.96875,"ha":289,"o":"m 210 892 l 187 998 l 88 998 l 66 892 l 96 660 l 179 660 l 210 892 "},"}":{"x_min":35.390625,"x_max":408.328125,"ha":463,"o":"m 408 351 l 408 447 b 302 587 352 447 302 502 l 302 828 b 153 1023 302 996 223 1023 l 58 1023 l 35 906 l 138 906 b 178 810 175 906 178 885 l 178 569 b 269 397 178 481 235 413 b 178 227 231 373 178 315 l 178 -13 b 132 -108 178 -88 174 -108 l 35 -108 l 58 -224 l 103 -224 l 151 -224 b 302 -31 219 -224 302 -201 l 302 209 b 408 351 302 294 352 351 "},"‰":{"x_min":60.171875,"x_max":1311.828125,"ha":1396,"o":"m 1311 173 b 1119 369 1311 281 1226 369 b 927 173 1013 369 927 281 b 1119 -22 927 65 1013 -22 b 1311 173 1226 -22 1311 65 m 1194 173 b 1119 96 1194 131 1160 96 b 1045 173 1079 96 1045 131 b 1119 249 1045 214 1079 249 b 1194 173 1160 249 1194 214 m 885 173 b 694 369 885 281 800 369 b 502 173 587 369 502 281 b 694 -22 502 65 587 -22 b 885 173 800 -22 885 65 m 768 173 b 693 96 768 131 734 96 b 619 173 653 96 619 131 b 693 249 619 214 653 249 b 768 173 734 249 768 214 m 443 699 b 437 749 443 716 441 732 b 579 791 488 749 538 757 l 188 0 l 321 0 l 748 867 l 646 893 b 432 849 583 868 499 849 b 367 857 411 849 389 850 b 343 871 359 860 349 867 b 251 895 314 883 283 895 b 60 699 145 895 60 807 b 252 503 60 591 145 503 b 443 699 358 503 443 591 m 326 699 b 252 623 326 657 292 623 b 177 699 211 623 177 657 b 252 775 177 741 211 775 b 326 699 292 775 326 741 "},"a":{"x_min":52.0625,"x_max":616.921875,"ha":647,"o":"m 616 9 l 580 82 b 555 74 572 78 563 74 b 529 110 535 74 529 93 l 529 506 b 318 700 529 639 441 700 b 84 579 233 700 139 646 l 133 492 b 306 575 175 534 246 575 b 385 507 352 575 385 560 l 385 439 l 92 310 b 52 173 73 273 52 216 b 233 -21 52 52 111 -21 b 401 78 310 -21 361 14 b 520 -19 412 17 460 -19 b 616 9 554 -19 588 -8 m 388 291 b 249 98 388 207 336 98 b 186 174 208 98 186 135 b 197 235 186 193 192 216 l 388 316 l 388 291 "},"T":{"x_min":13.609375,"x_max":537.640625,"ha":563,"o":"m 537 735 l 537 874 l 13 874 l 13 735 l 201 735 l 201 0 l 348 0 l 348 735 l 537 735 "},"—":{"x_min":0,"x_max":827.5625,"ha":844,"o":"m 827 292 l 827 417 l 0 417 l 0 292 l 827 292 "},"=":{"x_min":57.171875,"x_max":596.171875,"ha":667,"o":"m 596 379 l 596 504 l 57 504 l 57 379 l 596 379 m 596 183 l 596 308 l 57 308 l 57 183 l 596 183 "},"N":{"x_min":100.671875,"x_max":653.28125,"ha":769,"o":"m 653 0 l 653 874 l 504 874 b 504 306 504 313 504 419 b 465 433 504 306 487 383 l 274 874 l 100 874 l 100 0 l 249 0 l 249 497 b 239 612 249 555 239 612 l 510 0 l 653 0 "},"⁄":{"x_min":-118.421875,"x_max":590.71875,"ha":471,"o":"m 590 1026 l 458 1026 l -118 -173 l 13 -173 l 590 1026 "},"2":{"x_min":73.5,"x_max":555.328125,"ha":625,"o":"m 555 0 l 555 130 l 299 130 b 532 497 416 208 532 348 b 311 701 532 635 441 701 b 85 612 236 701 140 669 l 115 495 b 296 572 160 538 234 572 b 387 491 345 572 387 547 b 73 108 387 363 174 166 l 99 0 l 555 0 "},"j":{"x_min":-4.078125,"x_max":255.890625,"ha":331,"o":"m 232 -57 l 232 680 l 92 680 l 92 -49 b -4 -164 92 -107 43 -148 l 25 -269 b 232 -57 107 -242 232 -194 m 255 855 b 164 944 255 907 213 944 b 68 848 114 944 68 901 b 159 759 68 797 110 759 b 255 855 209 759 255 802 "},"Z":{"x_min":47.640625,"x_max":583.921875,"ha":636,"o":"m 583 0 l 583 137 l 220 137 b 548 753 322 347 434 552 l 548 874 l 74 874 l 74 737 l 366 737 b 47 118 254 533 147 327 l 47 0 l 583 0 "},"u":{"x_min":100.71875,"x_max":632.921875,"ha":721,"o":"m 632 59 b 605 126 632 59 605 80 l 605 680 l 462 680 l 462 177 b 302 108 420 145 353 108 b 243 174 251 108 243 130 l 243 680 l 100 680 l 100 174 b 284 -21 100 45 151 -21 b 484 62 348 -21 432 21 b 589 -21 495 26 545 -16 l 632 59 "},"1":{"x_min":133.390625,"x_max":432.828125,"ha":625,"o":"m 432 0 l 432 680 l 317 680 l 299 674 b 133 647 246 658 189 647 l 133 541 l 291 541 l 291 0 l 432 0 "},"›":{"x_min":19.0625,"x_max":386.5625,"ha":417,"o":"m 386 347 l 118 624 l 21 545 l 216 347 l 19 148 l 115 69 l 386 347 "},"k":{"x_min":103.4375,"x_max":635.640625,"ha":654,"o":"m 635 0 l 635 55 l 364 390 l 609 680 l 434 680 l 246 459 l 246 965 l 103 965 l 103 0 l 246 0 l 246 319 l 498 0 l 635 0 "},"<":{"x_min":21.78125,"x_max":389.28125,"ha":417,"o":"m 389 148 l 190 347 l 386 545 l 289 624 l 21 347 l 292 69 l 389 148 "},"t":{"x_min":23.140625,"x_max":390.640625,"ha":425,"o":"m 390 20 l 356 123 b 285 105 356 123 317 105 b 251 154 253 105 251 131 l 251 556 l 370 556 l 370 680 l 249 680 l 249 802 l 114 802 l 114 680 l 23 680 l 23 576 l 108 560 l 108 149 b 245 -20 108 58 145 -20 b 390 20 311 -20 332 -8 "},"W":{"x_min":12.25,"x_max":951.421875,"ha":983,"o":"m 951 874 l 803 874 l 696 384 b 680 256 687 342 683 299 b 665 386 679 299 676 342 l 552 874 l 411 874 l 298 386 b 283 256 287 342 284 299 b 266 384 280 299 276 342 l 161 874 l 12 874 l 208 0 l 353 0 l 470 530 b 481 608 476 555 479 581 b 494 530 484 583 487 555 l 609 0 l 755 0 l 951 874 "},"v":{"x_min":12.25,"x_max":604.328125,"ha":628,"o":"m 604 680 l 451 680 b 311 209 417 516 371 365 l 166 680 l 12 680 l 254 0 l 359 0 b 604 680 460 219 541 447 "},">":{"x_min":19.0625,"x_max":386.5625,"ha":417,"o":"m 386 347 l 118 624 l 21 545 l 216 347 l 19 148 l 115 69 l 386 347 "},"s":{"x_min":59.96875,"x_max":526.390625,"ha":582,"o":"m 526 188 b 431 356 526 256 492 324 l 265 442 b 201 512 239 455 201 477 b 293 588 201 559 253 588 b 428 531 340 588 395 566 l 503 606 b 296 701 461 670 367 701 b 59 501 175 701 59 635 b 133 359 59 445 84 386 b 318 261 194 326 257 294 b 386 177 349 244 386 218 b 284 95 386 116 336 95 b 132 159 236 95 170 131 l 79 62 b 280 -20 130 20 213 -20 b 526 188 405 -20 526 47 "},"B":{"x_min":99.359375,"x_max":638.359375,"ha":697,"o":"m 638 263 b 476 470 638 362 575 455 b 592 662 545 504 592 584 b 322 874 592 819 455 874 l 99 874 l 99 18 b 325 -20 171 -1 250 -20 b 638 263 495 -20 638 76 m 445 645 b 321 524 445 569 394 524 l 247 524 l 247 748 l 321 748 b 445 645 397 748 445 734 m 490 263 b 322 112 490 158 420 112 b 247 124 298 112 272 118 l 247 392 l 315 392 b 490 263 408 392 490 379 "},"…":{"x_min":66.6875,"x_max":726.828125,"ha":839,"o":"m 264 83 b 171 173 264 137 223 173 b 66 70 115 173 66 127 b 160 -20 66 15 107 -20 b 264 83 215 -20 264 26 m 496 83 b 404 173 496 137 455 173 b 299 70 348 173 299 127 b 393 -20 299 15 340 -20 b 496 83 447 -20 496 26 m 726 83 b 634 173 726 137 686 173 b 529 70 578 173 529 127 b 623 -20 529 15 570 -20 b 726 83 677 -20 726 26 "},"?":{"x_min":85.75,"x_max":465.5,"ha":497,"o":"m 283 84 b 190 174 283 138 242 174 b 85 72 134 174 85 129 b 178 -19 85 16 126 -19 b 283 84 234 -19 283 27 m 465 783 b 296 962 465 885 400 962 b 140 940 245 962 190 953 l 140 823 b 270 842 182 835 227 842 b 323 774 311 842 323 809 b 281 681 323 742 299 706 l 209 584 b 126 334 130 480 126 467 l 126 259 l 249 259 l 249 336 b 292 470 249 384 265 431 l 390 608 b 465 783 431 663 465 710 "},"H":{"x_min":100.71875,"x_max":645.171875,"ha":761,"o":"m 645 0 l 645 874 l 496 874 l 496 523 l 249 523 l 249 874 l 100 874 l 100 0 l 249 0 l 249 387 l 496 387 l 496 0 l 645 0 "},"c":{"x_min":57.171875,"x_max":543.078125,"ha":572,"o":"m 543 72 l 494 172 b 337 102 454 140 387 102 b 200 347 232 102 200 265 b 333 579 200 424 238 579 b 455 531 374 579 424 559 l 528 617 b 332 701 484 673 398 701 b 57 333 141 701 57 501 b 328 -20 57 170 145 -20 b 543 72 401 -20 488 20 "},"&":{"x_min":54.203125,"x_max":817.796875,"ha":875,"o":"m 538 681 l 439 681 b 325 760 384 681 325 693 b 436 850 325 831 375 850 b 538 720 519 850 538 793 l 538 681 m 817 23 l 783 117 b 708 98 763 109 732 98 b 670 153 673 98 670 123 l 670 561 l 796 561 l 796 681 l 668 681 l 668 752 b 420 962 668 894 545 962 b 184 771 311 962 184 896 b 269 650 184 718 220 668 b 54 331 122 628 54 469 b 274 -21 54 198 112 -21 b 448 71 365 -21 365 89 l 474 169 b 420 175 457 173 439 175 b 277 96 333 175 308 96 b 210 337 221 96 210 294 b 338 554 210 434 235 525 b 473 561 376 564 433 561 l 527 561 l 527 148 b 663 -21 527 57 564 -21 b 817 23 730 -21 760 -6 "},"I":{"x_min":88.46875,"x_max":235.46875,"ha":331,"o":"m 235 0 l 235 874 l 88 874 l 88 0 l 235 0 "},"•":{"x_min":42.1875,"x_max":533.5625,"ha":589,"o":"m 533 437 b 287 687 533 574 421 687 b 42 437 152 687 42 574 b 287 187 42 299 152 187 b 533 437 421 187 533 299 "},"G":{"x_min":66.6875,"x_max":645.171875,"ha":728,"o":"m 645 822 b 405 895 583 870 481 895 b 66 437 170 895 66 644 b 405 -20 66 219 155 -20 b 639 20 480 -20 570 -9 l 639 399 l 499 399 l 499 120 b 408 109 469 112 438 109 b 215 431 251 109 215 306 b 405 767 215 544 268 767 b 586 715 464 767 537 748 l 645 822 "},"(":{"x_min":50.359375,"x_max":432.828125,"ha":467,"o":"m 432 -77 b 171 456 262 61 171 233 b 432 956 171 654 269 849 l 415 1081 b 50 459 201 946 50 720 b 417 -212 50 154 186 -33 l 432 -77 "},"`":{"x_min":36.75,"x_max":378.390625,"ha":469,"o":"m 378 851 b 151 1073 296 912 212 988 l 36 953 b 313 756 117 873 215 809 l 378 851 "},"U":{"x_min":99.359375,"x_max":660.140625,"ha":775,"o":"m 660 342 l 660 874 l 511 874 l 511 342 b 379 112 511 249 499 112 b 247 342 259 112 247 249 l 247 874 l 99 874 l 99 342 b 379 -20 99 155 172 -20 b 660 342 586 -20 660 155 "},"◊":{"x_min":39.46875,"x_max":592.078125,"ha":661,"o":"m 592 440 l 315 722 l 39 440 l 315 158 l 592 440 "},"F":{"x_min":96.640625,"x_max":524.03125,"ha":572,"o":"m 524 741 l 524 874 l 96 874 l 96 0 l 245 0 l 245 387 l 465 387 l 465 523 l 245 523 l 245 741 l 524 741 "},"r":{"x_min":99.359375,"x_max":427.390625,"ha":443,"o":"m 427 680 b 347 701 427 680 398 701 b 243 630 303 701 243 630 l 243 680 l 99 680 l 99 0 l 242 0 l 242 506 b 328 567 242 506 292 567 b 404 542 360 567 404 542 l 427 680 "},":":{"x_min":80.3125,"x_max":277.671875,"ha":358,"o":"m 277 83 b 185 173 277 137 236 173 b 80 70 129 173 80 127 b 172 -20 80 15 121 -20 b 277 83 228 -20 277 26 m 277 483 b 185 574 277 537 236 574 b 80 470 129 574 80 527 b 172 379 80 415 121 379 b 277 483 228 379 277 426 "},"x":{"x_min":13.609375,"x_max":568.9375,"ha":589,"o":"m 568 0 l 364 360 b 545 681 385 394 545 681 l 389 681 l 287 476 l 186 681 l 25 681 l 206 351 l 13 0 l 170 0 l 285 231 l 405 0 l 568 0 "},"*":{"x_min":36.75,"x_max":528.109375,"ha":589,"o":"m 528 745 l 528 874 l 348 797 l 386 946 l 175 946 l 217 797 l 36 874 l 36 745 l 194 694 l 51 469 l 197 469 l 283 610 l 367 469 l 514 469 l 371 694 l 528 745 "},"†":{"x_min":35.390625,"x_max":532.1875,"ha":581,"o":"m 532 680 l 348 680 l 348 874 l 206 874 l 206 680 l 35 680 l 35 546 l 206 546 l 206 317 b 277 -21 206 169 231 70 b 348 317 328 70 348 172 l 348 546 l 513 546 l 532 680 "},"V":{"x_min":8.171875,"x_max":686,"ha":708,"o":"m 686 874 l 528 874 l 377 336 l 347 227 l 311 351 l 166 874 l 8 874 l 273 0 l 420 0 l 686 874 "},"h":{"x_min":102.078125,"x_max":607.0625,"ha":721,"o":"m 607 0 l 607 502 b 427 700 607 606 579 700 b 245 630 368 700 289 666 l 245 964 l 102 964 l 102 0 l 245 0 l 245 502 b 411 573 277 528 351 573 b 464 502 455 573 464 555 l 464 0 l 607 0 "},"0":{"x_min":32.671875,"x_max":579.828125,"ha":625,"o":"m 579 338 b 306 701 579 530 495 701 b 32 338 117 701 32 535 b 306 -20 32 168 117 -20 b 579 338 495 -20 579 162 m 442 338 b 306 108 442 173 390 108 b 170 338 221 108 170 215 b 306 572 170 477 221 572 b 442 338 390 572 442 476 "},".":{"x_min":80.3125,"x_max":277.671875,"ha":358,"o":"m 277 83 b 185 173 277 137 236 173 b 80 70 129 173 80 127 b 172 -20 80 15 121 -20 b 277 83 228 -20 277 26 "},"”":{"x_min":39.46875,"x_max":567.578125,"ha":619,"o":"m 317 815 b 208 895 295 848 250 895 b 126 860 182 895 148 877 b 130 827 129 849 130 838 b 39 604 130 749 81 666 l 123 544 b 317 815 198 623 268 717 m 567 815 b 458 895 545 848 499 895 b 377 860 432 895 397 877 b 381 827 379 849 381 838 b 288 604 381 749 330 666 l 374 544 b 567 815 449 623 518 717 "},"@":{"x_min":61.546875,"x_max":1012.96875,"ha":1100,"o":"m 1012 562 b 551 1004 1012 848 823 1004 b 61 493 287 1004 61 759 b 565 -21 61 208 284 -21 b 991 173 736 -21 876 39 l 919 239 b 591 92 826 144 725 92 b 190 490 366 92 190 256 b 550 887 190 691 343 887 b 893 562 751 887 893 778 b 889 501 893 541 891 520 b 721 294 878 420 812 294 b 694 330 701 294 694 312 b 699 362 694 341 697 351 l 793 753 l 679 753 l 669 714 b 555 772 642 739 592 772 b 290 419 366 772 290 584 b 408 219 290 345 314 219 b 582 301 460 219 540 267 b 698 202 585 241 644 202 b 1012 562 878 202 1012 390 m 649 626 l 595 395 b 449 333 563 377 482 333 b 408 399 414 333 408 370 b 544 667 408 483 449 667 b 649 626 574 667 622 643 "},"f":{"x_min":17.6875,"x_max":382.46875,"ha":397,"o":"m 382 875 l 357 981 b 104 758 357 981 104 972 l 104 681 l 17 681 l 17 576 l 104 561 l 104 0 l 247 0 l 247 558 l 371 558 l 371 681 l 247 681 l 247 751 b 382 875 247 867 382 875 "},";":{"x_min":15.15625,"x_max":292.828125,"ha":358,"o":"m 292 54 b 183 134 271 88 224 134 b 102 101 158 134 122 118 b 106 66 104 90 106 79 b 15 -155 106 -9 55 -93 l 99 -215 b 292 54 174 -137 243 -43 m 287 481 b 194 573 287 535 246 573 b 90 469 139 573 90 526 b 182 377 90 415 130 377 b 287 481 238 377 287 424 "},"“":{"x_min":43.5625,"x_max":571.671875,"ha":619,"o":"m 292 681 b 401 601 315 648 360 601 b 483 634 428 601 462 617 b 480 669 481 645 480 656 b 571 891 480 745 529 830 l 487 951 b 292 681 411 873 343 778 m 43 681 b 152 601 65 648 110 601 b 232 634 178 601 212 617 b 230 669 231 645 230 656 b 321 891 230 745 279 830 l 236 951 b 43 681 161 873 92 778 "},"i":{"x_min":68.0625,"x_max":255.890625,"ha":331,"o":"m 231 0 l 231 680 l 91 680 l 91 0 l 231 0 m 255 855 b 164 944 255 906 213 944 b 68 848 114 944 68 901 b 159 759 68 797 110 759 b 255 855 209 759 255 802 "},"6":{"x_min":55.578125,"x_max":570.078125,"ha":625,"o":"m 570 308 b 356 550 570 430 482 550 b 231 520 319 550 265 534 b 507 799 295 658 384 722 l 453 898 b 55 359 236 791 55 622 b 310 -20 55 197 114 -20 b 570 308 492 -20 570 143 m 429 312 b 318 104 429 233 423 104 b 195 332 220 104 195 259 b 202 413 195 359 197 386 b 299 438 233 426 265 438 b 429 312 379 438 429 397 "},"A":{"x_min":14.96875,"x_max":680.5625,"ha":708,"o":"m 680 0 l 408 874 l 285 874 l 14 0 l 168 0 l 250 251 l 446 251 l 528 0 l 680 0 m 412 384 l 283 384 l 348 654 l 412 384 "},"‘":{"x_min":46.28125,"x_max":323.9375,"ha":371,"o":"m 46 681 b 155 601 68 648 112 601 b 235 634 181 601 215 617 b 232 669 234 645 232 656 b 323 891 232 745 281 830 l 239 951 b 46 681 164 873 95 778 "},"n":{"x_min":102.078125,"x_max":607.0625,"ha":721,"o":"m 607 0 l 607 502 b 427 701 607 606 579 701 b 245 630 368 701 289 666 l 245 680 l 102 680 l 102 0 l 245 0 l 245 502 b 411 574 277 529 351 574 b 464 502 455 574 464 555 l 464 0 l 607 0 "},"O":{"x_min":68.0625,"x_max":677.828125,"ha":761,"o":"m 677 437 b 372 895 677 642 593 895 b 68 437 155 895 68 642 b 372 -20 68 231 151 -20 b 677 437 593 -20 677 231 m 529 437 b 372 112 529 301 496 112 b 216 437 249 112 216 301 b 372 762 216 573 249 762 b 529 437 496 762 529 573 "},"3":{"x_min":87.109375,"x_max":543.078125,"ha":625,"o":"m 543 136 b 362 330 543 236 462 320 b 528 537 431 358 528 444 b 347 699 528 630 460 699 b 98 609 254 699 175 655 l 133 499 b 326 576 133 499 266 576 b 385 522 356 576 385 555 b 338 444 385 491 360 462 b 182 333 289 404 236 363 l 110 322 l 110 211 b 242 218 153 215 197 218 b 401 115 310 218 401 204 b 87 -120 401 -52 221 -118 l 87 -231 l 95 -231 b 543 136 323 -233 543 -130 "},"]":{"x_min":73.5,"x_max":318.5,"ha":346,"o":"m 318 -216 l 318 1015 l 73 1015 l 73 892 l 193 892 l 193 -94 l 73 -94 l 73 -216 l 318 -216 "},"m":{"x_min":103.4375,"x_max":950.0625,"ha":1071,"o":"m 950 0 l 950 508 b 756 701 950 615 907 701 b 570 620 690 701 612 647 b 413 701 541 658 490 701 b 246 631 359 701 272 655 l 246 680 l 103 680 l 103 0 l 246 0 l 246 499 b 405 574 269 519 352 574 b 464 488 451 574 464 538 l 464 0 l 607 0 l 607 512 b 748 574 637 534 690 574 b 807 508 794 574 807 558 l 807 0 l 950 0 "},"9":{"x_min":44.953125,"x_max":560.8125,"ha":625,"o":"m 560 307 b 302 701 560 482 514 701 b 44 369 121 701 44 532 b 277 130 44 232 142 130 b 383 157 306 130 355 146 b 83 -123 321 21 211 -57 l 121 -231 b 560 307 338 -142 560 49 m 419 348 b 412 267 419 321 416 293 b 302 240 379 250 337 240 b 185 367 232 240 185 298 b 296 583 185 444 191 583 b 419 348 396 583 419 423 "},"l":{"x_min":83.03125,"x_max":269.5,"ha":328,"o":"m 269 0 b 223 284 239 104 223 172 l 223 965 l 83 965 l 83 284 b 122 0 83 124 107 38 l 269 0 "},"8":{"x_min":47.765625,"x_max":571.796875,"ha":625,"o":"m 401 658 b 300 522 401 591 352 552 b 208 642 251 548 208 580 b 302 763 208 705 234 763 b 401 658 368 763 401 724 m 428 239 b 310 97 428 171 382 97 b 189 240 236 97 189 171 b 292 396 189 315 234 359 b 428 239 352 361 428 321 m 571 244 b 411 462 571 357 502 415 b 537 656 486 508 537 562 b 309 874 537 799 450 874 b 70 648 174 874 70 791 b 190 458 70 562 122 499 b 47 226 103 402 47 337 b 298 -20 47 84 162 -20 b 571 244 454 -20 571 80 "},"p":{"x_min":104.8125,"x_max":643.8125,"ha":717,"o":"m 643 370 b 396 701 643 522 566 701 b 249 630 319 701 264 647 l 249 680 l 104 680 l 104 -243 l 249 -243 l 249 48 b 387 -21 274 0 332 -21 b 643 370 594 -21 643 204 m 496 356 b 382 105 496 283 485 105 b 249 331 268 105 249 245 l 249 501 b 382 571 280 532 326 571 b 496 356 483 571 496 434 "},"4":{"x_min":39.46875,"x_max":583.921875,"ha":625,"o":"m 583 0 l 583 127 l 506 127 l 506 680 l 367 680 b 39 112 238 504 118 317 l 46 0 l 367 0 l 367 -191 l 503 -191 l 503 0 l 583 0 m 367 127 l 186 127 b 367 467 232 249 299 363 l 367 127 "},"‡":{"x_min":35.390625,"x_max":532.1875,"ha":581,"o":"m 532 392 l 348 392 l 348 547 l 513 547 l 532 680 l 348 680 l 348 874 l 206 874 l 206 680 l 35 680 l 35 547 l 206 547 l 206 392 l 35 392 l 35 259 l 206 258 b 277 -27 209 122 234 58 b 348 258 326 59 345 124 l 513 259 l 532 392 "},"R":{"x_min":100.640625,"x_max":661.421875,"ha":701,"o":"m 661 0 l 661 61 l 417 319 b 624 597 543 330 624 465 b 298 874 624 752 534 874 l 100 874 l 100 0 l 249 0 l 249 312 l 528 0 l 661 0 m 473 598 b 326 426 473 506 423 426 b 249 444 291 426 249 444 l 249 744 l 298 744 b 473 598 421 744 473 688 "},"o":{"x_min":59.890625,"x_max":604.328125,"ha":678,"o":"m 604 340 b 332 701 604 509 515 701 b 59 340 148 701 59 509 b 332 -20 59 169 148 -20 b 604 340 515 -20 604 169 m 461 340 b 332 104 461 216 412 104 b 202 340 251 104 202 216 b 332 576 202 462 251 576 b 461 340 412 576 461 462 "},"5":{"x_min":81.9375,"x_max":542,"ha":625,"o":"m 542 138 b 324 344 542 268 445 344 b 257 336 301 344 279 339 l 269 556 l 505 556 l 505 681 l 141 681 l 101 183 b 286 217 169 203 213 217 b 399 117 346 217 399 185 b 81 -118 399 -49 222 -118 l 81 -228 l 109 -228 b 542 138 324 -231 542 -103 "}}}
